<?xml version="1.0" standalone="no"?>
<!DOCTYPE svg PUBLIC "-//W3C//DTD SVG 20010904//EN"
 "http://www.w3.org/TR/2001/REC-SVG-20010904/DTD/svg10.dtd">
<svg version="1.0" xmlns="http://www.w3.org/2000/svg"
 width="1400.000000pt" height="1050.000000pt" viewBox="0 0 1400.000000 1050.000000"
 preserveAspectRatio="xMidYMid meet">

<g transform="translate(0.000000,1050.000000) scale(0.100000,-0.100000)"
fill="#000000" stroke="none">
<path d="M0 5250 l0 -5250 7000 0 7000 0 0 5250 0 5250 -7000 0 -7000 0 0
-5250z m7641 2341 c564 -128 990 -576 1074 -1131 30 -196 13 -346 -56 -481
-235 -468 -889 -473 -1133 -9 -48 91 -65 161 -76 320 -16 243 -94 415 -256
571 -456 435 -1201 229 -1374 -381 -31 -108 -38 -275 -16 -374 28 -123 86
-227 180 -321 72 -71 125 -108 486 -331 223 -139 466 -287 540 -330 183 -105
427 -252 590 -354 283 -178 400 -348 400 -580 0 -159 -59 -300 -170 -410 -111
-111 -253 -170 -406 -170 -131 0 -132 2 -60 73 181 179 178 445 -9 614 -43 39
-210 147 -522 337 -941 574 -1052 646 -1187 775 -172 164 -280 341 -337 551
-30 111 -38 372 -14 512 46 273 166 513 358 714 201 211 426 336 709 395 136
28 360 30 498 4 412 -77 769 -345 959 -718 83 -163 141 -383 141 -536 0 -118
29 -172 102 -192 50 -13 102 10 136 61 23 33 24 40 18 150 -15 282 -118 590
-263 785 -124 167 -315 318 -543 430 l-115 57 130 -6 c72 -3 169 -14 216 -25z
m-954 -717 c20 -6 17 -11 -37 -61 -142 -131 -178 -337 -88 -505 54 -101 123
-153 555 -415 591 -360 962 -591 1065 -663 183 -129 352 -314 432 -474 81
-163 116 -316 116 -510 0 -359 -129 -684 -372 -942 -197 -208 -472 -355 -746
-400 -124 -20 -340 -20 -455 1 -420 74 -793 357 -977 740 -82 171 -121 324
-135 535 -7 104 -12 119 -51 149 -60 47 -144 31 -185 -36 -20 -32 -22 -44 -16
-152 14 -281 121 -600 267 -792 120 -160 321 -317 541 -424 l114 -56 -120 5
c-139 6 -242 24 -367 66 -421 141 -750 467 -882 871 -50 155 -61 226 -61 394
0 138 2 156 27 223 38 104 83 176 158 252 76 75 149 121 252 158 62 22 90 26
188 26 192 1 322 -53 455 -188 135 -135 176 -239 194 -482 17 -234 88 -391
246 -549 103 -104 193 -160 330 -208 87 -31 95 -32 255 -32 159 0 168 1 251
31 230 82 399 232 498 445 62 132 75 194 76 349 0 152 -16 217 -83 340 -70
129 -148 191 -543 437 -195 122 -472 290 -615 374 -550 322 -714 430 -808 529
-169 179 -205 432 -94 660 63 131 219 255 368 294 56 15 206 21 247 10z"/>
</g>
</svg>
